<?xml version="1.0" standalone="no"?>
<!DOCTYPE svg PUBLIC "-//W3C//DTD SVG 20010904//EN"
 "http://www.w3.org/TR/2001/REC-SVG-20010904/DTD/svg10.dtd">
<svg version="1.0" xmlns="http://www.w3.org/2000/svg"
 width="229.000000pt" height="220.000000pt" viewBox="0 0 229.000000 220.000000"
 preserveAspectRatio="xMidYMid meet">

<g transform="translate(0.000000,220.000000) scale(0.100000,-0.100000)" stroke="none">
<path d="M794 2171 c-91 -42 -131 -158 -85 -248 85 -167 341 -106 341 81 0 81
-33 134 -105 167 -51 24 -99 24 -151 0z"/>
<path d="M520 1756 c-70 -18 -107 -46 -229 -170 l-112 -116 19 -27 c11 -16 40
-47 64 -70 l44 -43 109 111 c111 112 147 139 185 139 16 0 19 -5 15 -22 -3
-13 -18 -93 -33 -178 -31 -167 -29 -210 8 -262 11 -15 20 -34 20 -42 0 -8 -39
-126 -86 -263 -47 -136 -88 -258 -91 -270 -5 -22 -2 -23 46 -23 35 0 71 9 115
29 l63 28 45 124 c25 68 58 161 73 207 14 45 30 82 33 82 4 -1 50 -15 102 -33
85 -29 97 -36 113 -67 15 -28 17 -49 12 -106 l-6 -70 83 17 c128 26 121 19
116 113 -6 97 -35 173 -85 216 -19 17 -80 53 -136 81 -56 28 -103 52 -105 54
-1 1 7 61 18 133 11 72 20 134 20 138 0 3 21 -12 46 -35 25 -24 61 -49 79 -57
52 -21 150 -17 226 10 l66 23 64 -239 c35 -132 66 -243 69 -247 3 -4 26 -5 51
-3 l45 4 -69 258 -69 258 22 22 c63 63 38 162 -44 172 -25 2 -32 10 -43 44
-15 45 -42 61 -76 43 -17 -10 -19 -18 -13 -69 l7 -58 -68 -26 c-38 -14 -73
-26 -78 -26 -6 0 -46 36 -89 79 -55 55 -97 88 -136 105 -92 41 -313 59 -410
32z"/>
<path d="M1485 798 c-22 -11 -92 -51 -155 -88 -98 -57 -125 -68 -179 -73 -85
-9 -289 -79 -479 -163 l-153 -67 -87 16 c-145 28 -183 21 -226 -42 -24 -35
-206 -360 -206 -367 0 -9 2266 -3 2279 5 11 7 -40 65 -214 245 -201 207 -240
252 -316 369 -47 73 -101 145 -119 160 -39 33 -88 35 -145 5z"/>
</g>
</svg>
