<?xml version="1.0" encoding="utf-8"?>
<!-- Generator: Adobe Illustrator 26.0.1, SVG Export Plug-In . SVG Version: 6.00 Build 0)  -->
<svg width="180px" height="38px" viewBox="0 0 180 38" version="1.1" id="Layer_1" xmlns="http://www.w3.org/2000/svg" xmlns:xlink="http://www.w3.org/1999/xlink" xml:space="preserve">
<style type="text/css">
	.st0{fill:#1A7CD9;}
	.st1{fill:url(#SVGID_1_);}
	.st2{fill:#FFFFFF;}
</style>
<g id="Layer_2_00000139282581947455918180000000306598533569833628_">
	<g id="Layer_1-2">
		<path class="st0" d="M52.7,10.4c3.1,0,4.9,1.8,4.9,4.3c0,1.5-0.9,2.9-2.3,3.4c1.7,0.4,2.9,2,2.8,3.8c0,2.6-1.9,4.5-5,4.5h-6.2v-16
			H52.7z M52.2,17c1.4,0,2.3-0.8,2.3-2c0-1.2-0.8-2-2.3-2H50v4L52.2,17L52.2,17z M52.5,23.8c1.5,0,2.4-0.8,2.4-2.1
			c0-1.3-0.8-2.1-2.4-2.1h-2.6v4.2H52.5z"/>
		<path class="st0" d="M70.1,23.2c-0.5,1.9-2.3,3.5-5.1,3.5c-3,0-5.7-2.2-5.7-5.9c0-3.5,2.6-5.8,5.4-5.8c3.4,0,5.5,2.2,5.5,5.7
			c0,0.4,0,0.9,0,0.9h-8c0.1,1.5,1.3,2.6,2.8,2.5c1.4,0,2.1-0.7,2.5-1.7L70.1,23.2z M67.2,19.6c0-1.1-0.8-2.2-2.5-2.2
			c-1.3,0-2.4,0.9-2.5,2.2H67.2z"/>
		<path class="st0" d="M75.8,15.3H78v2.6h-2.2v4.7c0,1,0.4,1.3,1.3,1.3c0.3,0,0.6,0,0.9,0v2.5c-0.5,0.2-1.1,0.3-1.7,0.3
			c-2.1,0-3.5-1.3-3.5-3.4V18h-2v-2.7h0.5c1.1,0,1.7-0.8,1.7-1.8V12h2.7L75.8,15.3L75.8,15.3z"/>
		<path class="st0" d="M83.8,15.3H86v2.6h-2.2v4.7c0,1,0.4,1.3,1.3,1.3c0.3,0,0.6,0,0.9,0v2.5c-0.5,0.2-1.1,0.3-1.7,0.3
			c-2.1,0-3.5-1.3-3.5-3.4V18h-2v-2.7h0.5c1.1,0,1.7-0.8,1.7-1.8V12h2.7L83.8,15.3L83.8,15.3z"/>
		<path class="st0" d="M98,23.2c-0.5,1.9-2.3,3.5-5.1,3.5c-3,0-5.7-2.2-5.7-5.9c0-3.5,2.6-5.8,5.4-5.8c3.4,0,5.4,2.2,5.4,5.7
			c0,0.4,0,0.9,0,0.9h-7.9c0.1,1.4,1.3,2.6,2.8,2.5c1.4,0,2.1-0.7,2.5-1.7L98,23.2z M95.2,19.6c0-1.1-0.8-2.2-2.5-2.2
			c-1.3,0-2.4,0.9-2.5,2.2H95.2z"/>
		<path class="st0" d="M106.8,18.3c-0.3,0-0.6-0.1-0.9-0.1c-1.5,0-2.9,0.7-2.9,3.1v5.1h-3v-11h2.9v1.6c0.7-1.5,2.2-1.7,3.2-1.7
			c0.2,0,0.4,0,0.7,0L106.8,18.3z"/>
		<polygon class="st0" points="108.6,26.4 108.6,10.4 111.7,10.4 111.7,23.4 118.9,23.4 118.9,26.4 		"/>
		<path class="st0" d="M130.6,23.2c-0.5,1.9-2.3,3.5-5.1,3.5c-3,0-5.7-2.2-5.7-5.9c0-3.5,2.6-5.8,5.4-5.8c3.4,0,5.4,2.2,5.4,5.7
			c0,0.4,0,0.9,0,0.9h-7.9c0.1,1.4,1.3,2.6,2.8,2.5c1.4,0,2.1-0.7,2.5-1.7L130.6,23.2z M127.7,19.6c0-1.1-0.8-2.2-2.5-2.2
			c-1.3,0-2.4,0.9-2.5,2.2H127.7z"/>
		<path class="st0" d="M134.2,22.8c0,0.9,0.7,1.7,2,1.7c1,0,1.5-0.5,1.5-1.1c0-0.5-0.3-0.9-1.2-1.1l-1.5-0.3
			c-2.1-0.4-3.1-1.8-3.1-3.3c0-2,1.8-3.6,4.2-3.6c3.2,0,4.2,2,4.4,3.2l-2.5,0.5c-0.1-0.7-0.5-1.5-1.8-1.5c-0.8,0-1.4,0.4-1.4,1.1
			c0,0.5,0.4,0.9,1,1l1.6,0.3c2.2,0.4,3.3,1.8,3.3,3.4c0,1.8-1.4,3.7-4.3,3.7c-3.4,0-4.5-2.2-4.6-3.4L134.2,22.8z"/>
		<path class="st0" d="M144.2,22.8c0,0.9,0.7,1.7,2,1.7c1,0,1.5-0.5,1.5-1.1c0-0.5-0.3-0.9-1.2-1.1l-1.5-0.3
			c-2.1-0.4-3.1-1.8-3.1-3.3c0-2,1.8-3.6,4.2-3.6c3.2,0,4.2,2,4.4,3.2l-2.5,0.5c0-0.7-0.5-1.5-1.8-1.5c-0.8,0-1.4,0.4-1.4,1.1
			c0,0.5,0.4,0.9,1,1l1.6,0.3c2.2,0.4,3.3,1.8,3.3,3.4c0,1.8-1.4,3.7-4.3,3.7c-3.4,0-4.5-2.2-4.6-3.4L144.2,22.8z"/>
		<path class="st0" d="M163.2,20.8c0,3.4-2.5,5.9-5.8,5.9s-5.8-2.5-5.8-5.9s2.5-5.9,5.8-5.9S163.2,17.4,163.2,20.8 M160.2,20.8
			c0-2.1-1.3-3.2-2.8-3.2s-2.8,1-2.8,3.2s1.3,3.2,2.8,3.2C158.9,24,160.2,23,160.2,20.8"/>
		<path class="st0" d="M168.2,26.4h-3V15.3h2.9v1.4c0.7-1.1,2-1.6,3.2-1.6c2.7,0,4,2,4,4.4v7h-3v-6.5c0-1.2-0.6-2.2-2-2.2
			c-1.3,0-2.1,1-2.1,2.3L168.2,26.4L168.2,26.4z"/>
		<path class="st0" d="M177.6,15.2c0.9,0,1.6,0.7,1.6,1.5c0,0.9-0.7,1.6-1.5,1.6c-0.9,0-1.6-0.7-1.6-1.5c0,0,0,0,0,0
			C176.1,15.9,176.8,15.2,177.6,15.2z M177.6,18c0.7,0,1.3-0.5,1.3-1.2c0-0.7-0.5-1.3-1.2-1.3c-0.7,0-1.3,0.5-1.3,1.2v0
			C176.4,17.5,176.9,18,177.6,18L177.6,18L177.6,18z M177.6,17L177.6,17l-0.1,0.6h-0.3v-1.7h0.6c0.3,0,0.5,0.2,0.5,0.5l0,0
			c0,0.2-0.1,0.4-0.3,0.5l0.3,0.7h-0.4L177.6,17z M177.7,16.7c0.2,0,0.3,0,0.3-0.2c0-0.2-0.1-0.2-0.3-0.2h-0.2v0.4L177.7,16.7z"/>
		
			<linearGradient id="SVGID_1_" gradientUnits="userSpaceOnUse" x1="4.6333" y1="-457.1769" x2="33.6405" y2="-486.1841" gradientTransform="matrix(1 0 0 -1 0 -452.7244)">
			<stop  offset="0" style="stop-color:#1A7CD9"/>
			<stop  offset="0.32" style="stop-color:#1974CD"/>
			<stop  offset="0.89" style="stop-color:#1660AF"/>
			<stop  offset="1" style="stop-color:#155CA8"/>
			<stop  offset="1" style="stop-color:#155CA8"/>
		</linearGradient>
		<path class="st1" d="M6,0.8h26.3c2.9,0,5.2,2.3,5.2,5.2l0,0V32c0,2.9-2.3,5.2-5.2,5.2l0,0H6.1c-2.9,0-5.2-2.3-5.2-5.2l0,0V5.9
			C0.9,3,3.2,0.8,6,0.8L6,0.8z"/>
		<path class="st2" d="M11.8,19.7v4.2h2.5c1.5,0,2.4-0.8,2.4-2c0-1.3-0.8-2.1-2.3-2.1C14.3,19.7,11.8,19.7,11.8,19.7z M11.8,13.3v4
			H14c1.4,0,2.3-0.8,2.3-2s-0.8-2-2.3-2C13.9,13.3,11.8,13.3,11.8,13.3z M8.8,10.7h5.7c3.1,0,4.8,1.8,4.8,4.3c0,1.5-0.9,2.9-2.3,3.4
			c1.7,0.4,2.9,2,2.8,3.7c0,2.6-1.9,4.4-4.9,4.4H8.8V10.7z M21.5,10.7h3.1v12.9h7v2.9H21.5V10.7z"/>
	</g>
</g>
</svg>
