<svg width="614" height="221" viewBox="47 54 613.72 220.99" fill="none" xmlns="http://www.w3.org/2000/svg">
<g clip-path="url(#clip0_105_7363)">
<path fill-rule="evenodd" clip-rule="evenodd" d="M94.75 61.48L143.49 151.48C147.6 159.07 148.17 168.35 145.03 176.48L132.47 209C131.92 210.41 130.44 211.07 129.15 210.47C128.65 210.24 128.23 209.83 127.95 209.31L47.35 58.18C46.64 56.85 47.05 55.15 48.26 54.38C48.65 54.13 49.09 54 49.54 54H82.77C87.69 54 92.24 56.84 94.75 61.48ZM170.38 54.05C185.37 54.05 185.37 69.11 182.87 77.32L182 79.95C179.84 86.13 175.19 97.79 168.03 114.93C167.82 115.44 167.46 115.87 167.02 116.16C165.95 116.86 164.6 116.59 163.81 115.6L163.54 115.19L132.69 58.25C132.46 57.82 132.33 57.33 132.33 56.83C132.33 55.3 133.46 54.05 134.86 54.05H170.37H170.38Z" fill="#5C3D99"/>
<path d="M278.47 189.5L242.87 112.23H262.7L289.85 175.18H278.14L305.45 112.23H324.47L288.87 189.5H278.46H278.47Z" fill="#5C3D99"/>
<path d="M368.73 191.11C360.93 191.11 353.88 189.39 347.59 185.96C341.41 182.42 336.48 177.59 332.8 171.47C329.22 165.35 327.44 158.48 327.44 150.86C327.44 143.24 329.23 136.43 332.8 130.41C336.38 124.29 341.2 119.46 347.27 115.92C353.45 112.38 360.28 110.61 367.76 110.61C375.24 110.61 381.42 112.27 386.94 115.6C392.58 118.93 396.97 123.49 400.11 129.28C403.36 135.08 404.99 141.68 404.99 149.08C404.99 150.37 404.88 151.71 404.66 153.1C404.55 154.39 404.33 155.84 404.01 157.45H339.95V142.96H394.74L388.07 148.76C387.85 144.04 386.93 140.07 385.31 136.85C383.68 133.63 381.35 131.16 378.32 129.44C375.39 127.72 371.76 126.86 367.43 126.86C362.88 126.86 358.92 127.83 355.56 129.76C352.2 131.69 349.6 134.43 347.76 137.97C345.92 141.4 345 145.54 345 150.37C345 155.2 345.98 159.44 347.93 163.09C349.88 166.74 352.65 169.58 356.22 171.62C359.8 173.55 363.92 174.52 368.58 174.52C372.59 174.52 376.28 173.82 379.63 172.43C383.1 171.03 386.03 169 388.41 166.31L399.79 177.74C396 182.14 391.39 185.47 385.97 187.72C380.55 189.97 374.81 191.1 368.74 191.1L368.73 191.11Z" fill="#5C3D99"/>
<path d="M472.81 189.5V144.91C472.81 139.76 471.13 135.52 467.77 132.19C464.52 128.86 460.29 127.2 455.09 127.2C451.62 127.2 448.53 127.95 445.82 129.45C443.11 130.95 441 133.04 439.48 135.73C437.96 138.42 437.2 141.47 437.2 144.91L430.21 141.05C430.21 135.15 431.51 129.94 434.11 125.43C436.71 120.82 440.29 117.22 444.84 114.64C449.5 111.96 454.7 110.62 460.45 110.62C466.2 110.62 471.51 112.12 476.06 115.13C480.61 118.03 484.19 121.84 486.79 126.56C489.39 131.18 490.69 136 490.69 141.05V189.51H472.81V189.5ZM419.32 189.5V112.22H437.2V189.49H419.32V189.5Z" fill="#5C3D99"/>
<path d="M541.54 191.11C534.5 191.11 528.1 189.34 522.36 185.8C516.72 182.26 512.23 177.48 508.87 171.47C505.62 165.35 503.99 158.54 503.99 151.02C503.99 143.5 505.62 136.58 508.87 130.57C512.23 124.45 516.73 119.62 522.36 116.08C528.1 112.43 534.5 110.61 541.54 110.61C547.5 110.61 552.76 111.9 557.31 114.47C561.97 116.94 565.66 120.37 568.37 124.77C571.08 129.17 572.43 134.16 572.43 139.74V161.96C572.43 167.54 571.08 172.53 568.37 176.93C565.77 181.33 562.14 184.82 557.48 187.39C552.82 189.86 547.51 191.09 541.55 191.09L541.54 191.11ZM544.47 174.37C548.91 174.37 552.76 173.4 556.01 171.47C559.37 169.43 561.97 166.64 563.81 163.1C565.65 159.56 566.57 155.48 566.57 150.86C566.57 146.24 565.65 142.17 563.81 138.62C561.97 135.08 559.37 132.34 556.01 130.41C552.76 128.37 548.97 127.35 544.63 127.35C540.29 127.35 536.28 128.37 532.92 130.41C529.67 132.34 527.07 135.08 525.12 138.62C523.28 142.16 522.36 146.24 522.36 150.86C522.36 155.48 523.28 159.55 525.12 163.1C527.07 166.64 529.67 169.43 532.92 171.47C536.28 173.4 540.13 174.37 544.46 174.37H544.47ZM583.32 189.5H565.44V168.73L568.53 149.89L565.44 131.22V73.59H583.32V189.5Z" fill="#5C3D99"/>
<path d="M603.17 189.5V112.22H621.05V189.49H603.17V189.5ZM621.05 146.51L614.87 143.45C614.87 133.68 617.04 125.8 621.37 119.78C625.81 113.66 632.48 110.6 641.37 110.6C645.27 110.6 648.79 111.3 651.94 112.69C655.08 114.09 658.01 116.34 660.72 119.45L649.01 131.36C647.6 129.86 646.03 128.78 644.3 128.14C642.57 127.5 640.56 127.17 638.28 127.17C633.29 127.17 629.18 128.73 625.92 131.84C622.67 134.95 621.04 139.84 621.04 146.49L621.05 146.51Z" fill="#5C3D99"/>
<path d="M315.34 232.61L304.56 260.79H296.31L285.46 232.61H294.88L300.75 251.13L306.62 232.61H315.35H315.34ZM342.26 245.96C342.26 237.5 337.44 231.64 328.77 231.64C318.79 231.64 314.34 238.25 314.34 246.81C314.34 256.06 319.42 261.72 329.99 261.73C333.43 261.73 337.09 261.16 340.3 259.52L340.99 252.38C337.97 253.78 334.69 254.48 331.37 254.44C327.17 254.44 324.56 253.46 323.63 249.86H342.06C342.17 248.82 342.28 247.02 342.27 245.94L342.26 245.96ZM323.39 244.43C323.72 240.72 325.14 238.86 328.62 238.87C331.67 238.87 333.47 240.78 333.53 244.43H323.39ZM359.31 231.64C357.08 231.64 354.34 233.07 353.03 236.4L352.47 232.6H344.79V260.78H353.73V242.52C354.66 240.33 356.52 239.19 359.35 239.19C360.34 239.19 361.3 239.47 362.23 239.83L363.11 232.98C361.98 232.32 360.63 231.63 359.32 231.65L359.31 231.64ZM386.78 229.72H395.72V222.38H386.78V229.72ZM386.78 260.78H395.72V232.6H386.78V260.78ZM413.62 261.74C415.94 261.73 418.24 261.15 420.38 260.23L421.06 252.94C418.99 253.83 416.76 254.28 414.52 254.25C411.14 254.25 407.54 252.19 407.54 246.84C407.54 241.49 410.87 239.52 414.74 239.52C416.72 239.48 418.69 239.76 420.52 240.52L421.21 233.59C418.88 232.5 416.29 231.6 413.71 231.65C404.22 231.65 398.39 237.78 398.39 246.83C398.39 255.88 404.15 261.75 413.63 261.75L413.62 261.74ZM374.92 249.88V239.19H382.81L383.38 232.6H374.93L374.96 222.35C374.96 222.35 367 222.37 365.74 227.87C365.61 228.47 365.55 229.08 365.55 229.7V251.01C365.55 257.82 369.59 261.47 376.68 261.47C378.65 261.47 380.6 261.3 382.5 260.76L383.11 253.73C381.73 254.14 380.3 254.32 378.86 254.27C376.02 254.22 374.93 252.8 374.93 249.86L374.92 249.88ZM450.35 245.96C450.35 237.5 445.53 231.64 436.86 231.64C426.88 231.64 422.43 238.25 422.43 246.81C422.43 256.06 427.51 261.72 438.08 261.73C441.52 261.73 445.18 261.16 448.39 259.52L449.08 252.38C446.06 253.78 442.78 254.48 439.46 254.44C435.26 254.44 432.65 253.46 431.72 249.86H450.15C450.26 248.82 450.37 247.02 450.36 245.94L450.35 245.96ZM431.48 244.43C431.81 240.72 433.23 238.86 436.71 238.87C439.76 238.87 441.56 240.78 441.62 244.43H431.48Z" fill="#1E293B"/>
<path d="M269.13 242.39C269.13 240.3 268.6 238.84 267.53 238.03C266.47 237.21 264.92 236.81 262.9 236.81C261.66 236.81 260.5 236.91 259.42 237.1C258.34 237.3 257.28 237.55 256.25 237.87C255.58 236.7 255.24 235.3 255.24 233.67C256.45 233.28 257.78 232.98 259.23 232.77C260.68 232.56 262.08 232.45 263.43 232.45C266.98 232.45 269.67 233.26 271.52 234.87C273.36 236.48 274.29 239.06 274.29 242.61V259.69C273.05 259.97 271.54 260.27 269.77 260.57C268 260.87 266.19 261.02 264.34 261.02C262.6 261.02 261.03 260.86 259.63 260.54C258.23 260.22 257.04 259.71 256.07 259C255.09 258.29 254.34 257.39 253.81 256.29C253.28 255.19 253.01 253.86 253.01 252.3C253.01 250.74 253.32 249.44 253.94 248.28C254.56 247.13 255.4 246.17 256.47 245.41C257.53 244.65 258.76 244.08 260.14 243.71C261.52 243.34 262.98 243.15 264.5 243.15C265.63 243.15 266.57 243.18 267.29 243.23C268.02 243.28 268.63 243.35 269.13 243.42V242.41V242.39ZM269.13 247.55C268.6 247.48 267.92 247.41 267.11 247.34C266.29 247.27 265.6 247.23 265.03 247.23C262.83 247.23 261.15 247.64 260 248.45C258.85 249.26 258.27 250.51 258.27 252.17C258.27 253.23 258.46 254.07 258.85 254.67C259.24 255.27 259.73 255.73 260.31 256.05C260.89 256.37 261.54 256.56 262.25 256.63C262.96 256.7 263.63 256.74 264.27 256.74C265.09 256.74 265.93 256.7 266.8 256.61C267.67 256.52 268.44 256.39 269.11 256.21V247.54L269.13 247.55Z" fill="#808080"/>
<path d="M482.9 257.01C483.18 257.51 483.43 258.13 483.65 258.87C483.86 259.62 483.99 260.38 484.02 261.16C481.93 261.98 479.53 262.38 476.84 262.38C472.3 262.38 468.88 261.09 466.57 258.52C464.26 255.95 463.11 252.48 463.11 248.12C463.11 246.1 463.39 244.22 463.96 242.48C464.53 240.74 465.37 239.23 466.49 237.96C467.61 236.68 469 235.67 470.67 234.93C472.34 234.18 474.27 233.81 476.47 233.81C477.96 233.81 479.27 233.9 480.41 234.08C481.54 234.26 482.63 234.54 483.66 234.93C483.66 235.53 483.58 236.23 483.42 237.03C483.26 237.83 483.04 238.53 482.75 239.13C481.01 238.53 479.03 238.23 476.79 238.23C474.06 238.23 472.02 239.13 470.67 240.94C469.32 242.75 468.65 245.14 468.65 248.12C468.65 251.53 469.41 254.02 470.94 255.59C472.46 257.17 474.56 257.96 477.22 257.96C478.28 257.96 479.27 257.89 480.17 257.75C481.07 257.61 481.99 257.36 482.91 257.01H482.9Z" fill="#808080"/>
<path d="M497.21 262.38C495.08 262.38 493.22 262.02 491.62 261.29C490.02 260.56 488.69 259.56 487.63 258.28C486.57 257 485.78 255.5 485.26 253.76C484.75 252.02 484.49 250.14 484.49 248.12C484.49 246.1 484.75 244.22 485.26 242.48C485.77 240.74 486.56 239.23 487.63 237.96C488.69 236.68 490.02 235.67 491.62 234.93C493.22 234.18 495.08 233.81 497.21 233.81C499.34 233.81 501.2 234.18 502.8 234.93C504.4 235.67 505.73 236.68 506.79 237.96C507.85 239.24 508.64 240.74 509.16 242.48C509.67 244.22 509.93 246.1 509.93 248.12C509.93 250.14 509.67 252.02 509.16 253.76C508.65 255.5 507.86 257.01 506.79 258.28C505.73 259.56 504.4 260.56 502.8 261.29C501.2 262.02 499.34 262.38 497.21 262.38ZM497.21 258.18C499.66 258.18 501.47 257.29 502.64 255.52C503.81 253.75 504.4 251.28 504.4 248.13C504.4 244.98 503.82 242.52 502.64 240.76C501.47 239 499.66 238.13 497.21 238.13C494.76 238.13 492.96 239.01 491.81 240.76C490.66 242.51 490.08 244.97 490.08 248.13C490.08 251.29 490.66 253.75 491.81 255.52C492.96 257.29 494.76 258.18 497.21 258.18Z" fill="#808080"/>
<path d="M513.65 234.45C514.04 234.38 514.42 234.33 514.79 234.29C515.16 234.25 515.54 234.24 515.93 234.24C516.32 234.24 516.68 234.26 517.02 234.29C517.36 234.32 517.72 234.38 518.11 234.45C518.22 234.98 518.32 235.68 518.43 236.55C518.54 237.42 518.59 238.16 518.59 238.76C518.91 238.12 519.31 237.51 519.79 236.92C520.27 236.34 520.84 235.81 521.49 235.35C522.15 234.89 522.9 234.52 523.75 234.23C524.6 233.95 525.54 233.81 526.57 233.81C528.7 233.81 530.34 234.24 531.49 235.11C532.64 235.98 533.52 237.19 534.12 238.75C534.47 238.15 534.91 237.54 535.42 236.94C535.93 236.34 536.51 235.81 537.15 235.34C537.79 234.88 538.52 234.51 539.33 234.22C540.15 233.94 541.07 233.8 542.1 233.8C545.26 233.8 547.55 234.69 548.99 236.46C550.43 238.23 551.14 240.86 551.14 244.33V261.73C550.75 261.8 550.31 261.85 549.81 261.89C549.31 261.93 548.87 261.94 548.48 261.94C548.09 261.94 547.66 261.92 547.18 261.89C546.7 261.85 546.27 261.8 545.88 261.73V245.88C545.88 243.43 545.51 241.6 544.76 240.37C544.01 239.14 542.79 238.54 541.09 238.54C539.28 238.54 537.82 239.2 536.7 240.51C535.58 241.82 535.02 243.76 535.02 246.31V261.74C534.63 261.81 534.2 261.86 533.72 261.9C533.24 261.94 532.81 261.95 532.42 261.95C532.03 261.95 531.59 261.93 531.12 261.9C530.65 261.87 530.21 261.81 529.82 261.74V245.51C529.82 243.13 529.47 241.35 528.76 240.16C528.05 238.97 526.92 238.38 525.36 238.38C524.47 238.38 523.64 238.58 522.86 238.97C522.08 239.36 521.4 239.95 520.81 240.72C520.23 241.5 519.76 242.48 519.43 243.67C519.09 244.86 518.92 246.23 518.92 247.79V261.73C518.53 261.8 518.1 261.85 517.62 261.89C517.14 261.93 516.71 261.94 516.32 261.94C515.93 261.94 515.49 261.92 514.99 261.89C514.49 261.85 514.05 261.8 513.66 261.73V234.44L513.65 234.45Z" fill="#808080"/>
<path d="M555.83 234.45C556.18 234.38 556.55 234.33 556.92 234.29C557.29 234.25 557.67 234.24 558.06 234.24C558.41 234.24 558.79 234.26 559.18 234.29C559.57 234.32 559.94 234.38 560.3 234.45C560.34 234.52 560.38 234.74 560.43 235.12C560.48 235.49 560.54 235.89 560.59 236.32C560.64 236.75 560.7 237.15 560.75 237.54C560.8 237.93 560.83 238.18 560.83 238.28C561.18 237.71 561.61 237.16 562.11 236.63C562.61 236.1 563.2 235.62 563.89 235.19C564.58 234.76 565.36 234.43 566.23 234.18C567.1 233.93 568.07 233.81 569.13 233.81C570.73 233.81 572.21 234.08 573.57 234.61C574.94 235.14 576.11 235.97 577.08 237.08C578.05 238.19 578.82 239.62 579.37 241.34C579.92 243.06 580.19 245.09 580.19 247.43C580.19 252.11 578.92 255.77 576.39 258.42C573.85 261.06 570.26 262.38 565.62 262.38C564.84 262.38 564.04 262.33 563.23 262.22C562.41 262.11 561.7 261.97 561.1 261.79V274.29C560.67 274.36 560.22 274.41 559.74 274.45C559.26 274.48 558.83 274.5 558.44 274.5C558.05 274.5 557.61 274.48 557.14 274.45C556.66 274.41 556.23 274.36 555.84 274.29V234.44L555.83 234.45ZM561.1 257.27C561.77 257.52 562.46 257.7 563.17 257.8C563.88 257.91 564.8 257.96 565.94 257.96C567.22 257.96 568.39 257.76 569.45 257.35C570.51 256.94 571.43 256.31 572.19 255.46C572.95 254.61 573.55 253.54 574 252.24C574.44 250.95 574.67 249.41 574.67 247.64C574.67 244.8 574.15 242.55 573.1 240.88C572.05 239.21 570.34 238.38 567.97 238.38C567.08 238.38 566.23 238.54 565.42 238.86C564.6 239.18 563.88 239.66 563.24 240.3C562.6 240.94 562.09 241.75 561.7 242.72C561.31 243.7 561.12 244.86 561.12 246.2V257.27H561.1Z" fill="#808080"/>
<path d="M598.5 243.76C598.5 241.67 597.97 240.21 596.9 239.4C595.84 238.58 594.29 238.18 592.27 238.18C591.03 238.18 589.87 238.28 588.79 238.47C587.71 238.67 586.65 238.92 585.62 239.24C584.95 238.07 584.61 236.67 584.61 235.04C585.82 234.65 587.15 234.35 588.6 234.14C590.05 233.93 591.45 233.82 592.8 233.82C596.35 233.82 599.04 234.63 600.89 236.24C602.73 237.85 603.66 240.43 603.66 243.98V261.06C602.42 261.34 600.91 261.64 599.14 261.94C597.37 262.24 595.56 262.39 593.71 262.39C591.97 262.39 590.4 262.23 589 261.91C587.6 261.59 586.41 261.08 585.44 260.37C584.46 259.66 583.71 258.76 583.18 257.66C582.65 256.56 582.38 255.23 582.38 253.67C582.38 252.11 582.69 250.81 583.31 249.65C583.93 248.5 584.77 247.54 585.84 246.78C586.9 246.02 588.13 245.45 589.51 245.08C590.89 244.71 592.35 244.52 593.87 244.52C595 244.52 595.94 244.55 596.66 244.6C597.39 244.65 598 244.72 598.5 244.79V243.78V243.76ZM598.5 248.92C597.97 248.85 597.29 248.78 596.48 248.71C595.66 248.64 594.97 248.6 594.4 248.6C592.2 248.6 590.52 249.01 589.37 249.82C588.22 250.63 587.64 251.88 587.64 253.54C587.64 254.6 587.83 255.44 588.22 256.04C588.61 256.64 589.1 257.1 589.68 257.42C590.26 257.74 590.91 257.93 591.62 258C592.33 258.07 593 258.11 593.64 258.11C594.46 258.11 595.3 258.07 596.17 257.98C597.04 257.89 597.81 257.76 598.48 257.58V248.91L598.5 248.92Z" fill="#808080"/>
<path d="M608.39 234.45C608.78 234.38 609.16 234.33 609.53 234.29C609.9 234.25 610.28 234.24 610.67 234.24C611.06 234.24 611.42 234.26 611.76 234.29C612.1 234.32 612.46 234.38 612.85 234.45C612.96 234.98 613.06 235.7 613.17 236.61C613.28 237.51 613.33 238.27 613.33 238.87C613.68 238.27 614.14 237.66 614.69 237.06C615.24 236.46 615.87 235.92 616.58 235.44C617.29 234.96 618.1 234.57 619.03 234.27C619.95 233.97 620.96 233.82 622.06 233.82C625.18 233.82 627.49 234.72 628.98 236.51C630.47 238.3 631.21 240.95 631.21 244.46V261.75C630.82 261.82 630.38 261.87 629.88 261.91C629.38 261.95 628.94 261.96 628.55 261.96C628.16 261.96 627.73 261.94 627.25 261.91C626.77 261.87 626.34 261.82 625.95 261.75V245.9C625.95 243.38 625.56 241.53 624.78 240.34C624 239.15 622.76 238.56 621.06 238.56C620.07 238.56 619.13 238.74 618.24 239.09C617.35 239.44 616.57 239.99 615.9 240.74C615.23 241.49 614.69 242.45 614.28 243.64C613.87 244.83 613.67 246.26 613.67 247.92V261.75C613.28 261.82 612.85 261.87 612.37 261.91C611.89 261.95 611.46 261.96 611.07 261.96C610.68 261.96 610.24 261.94 609.74 261.91C609.24 261.87 608.8 261.82 608.41 261.75V234.46L608.39 234.45Z" fill="#808080"/>
<path d="M645.26 261.79C644.98 261.79 644.68 261.79 644.38 261.82C644.08 261.84 643.79 261.85 643.5 261.85C643.15 261.85 642.77 261.85 642.38 261.82C641.99 261.8 641.67 261.78 641.42 261.74L632.38 234.45C632.84 234.38 633.32 234.34 633.82 234.32C634.32 234.3 634.78 234.29 635.2 234.29C635.66 234.29 636.18 234.29 636.74 234.32C637.31 234.34 637.79 234.38 638.18 234.45L645.73 259.83L653.55 234.45C654.3 234.34 655.16 234.29 656.16 234.29C656.55 234.29 656.99 234.29 657.49 234.32C657.99 234.34 658.48 234.38 658.98 234.45L648.39 267.27C647.89 268.72 647.38 269.95 646.85 270.94C646.32 271.93 645.72 272.73 645.04 273.33C644.37 273.93 643.61 274.36 642.78 274.61C641.95 274.86 640.98 274.98 639.88 274.98C639.06 274.98 638.26 274.92 637.46 274.79C636.66 274.67 635.96 274.51 635.36 274.34C635.36 273.52 635.43 272.8 635.57 272.16C635.71 271.52 635.92 270.88 636.21 270.24C636.53 270.35 636.96 270.46 637.51 270.59C638.06 270.71 638.65 270.78 639.29 270.78C639.75 270.78 640.19 270.74 640.59 270.65C641 270.56 641.38 270.38 641.73 270.12C642.08 269.85 642.41 269.47 642.71 268.98C643.01 268.48 643.3 267.81 643.59 266.96L645.24 261.8L645.26 261.79Z" fill="#808080"/>
</g>
<defs>
<clipPath id="clip0_105_7363">
<rect width="613.72" height="220.99" fill="white" transform="translate(47 54)"/>
</clipPath>
</defs>
</svg>
